<svg width="125" height="68" viewBox="0 0 125 68" fill="none" xmlns="http://www.w3.org/2000/svg">
<path d="M85.1833 11.9627L82.2379 17.133L85.9639 21.8712L91.1185 12.8418L85.1833 11.9627ZM69.0274 20.858V16.8201C67.7314 16.239 66.8183 14.9427 66.8183 13.408C66.8183 12.5587 67.1129 11.769 67.5989 11.173L64.6976 9.45949C63.2101 8.58039 62.6946 6.65828 63.5636 5.15338L65.5959 1.57738C66.0103 0.854738 66.6902 0.327082 67.4874 0.109388C68.2847 -0.108306 69.1347 0.0016065 69.8521 0.415175L81.8255 7.44798C83.2246 8.23769 83.7106 10.0555 82.9006 11.4859L80.6915 15.3599C79.8815 16.7754 78.07 17.2671 76.6709 16.4476L73.9022 14.8384C73.534 15.7175 72.8418 16.4327 71.9729 16.8201V20.858C71.9729 22.497 70.6474 23.838 69.0274 23.838H61.6637V20.858H69.0274Z" fill="url(#paint0_linear_15_84)"/>
<path d="M51.179 67.5607L66.8664 20.7996H55.161L44.2911 51.0145H43.907L37.1014 24.9274H25.4935L18.5781 50.8175H18.2214L11.8 32.9498H0L11.4433 67.5607H23.8195L31.0642 42.8059H31.5856L38.8302 67.5607H51.179Z" fill="url(#paint1_linear_15_84)"/>
<path d="M101.851 36.9514H100.208C100.178 36.7406 100.117 36.5534 100.025 36.3897C99.9322 36.2235 99.8134 36.0822 99.6685 35.9656C99.5235 35.849 99.356 35.7598 99.1661 35.6977C98.9786 35.6357 98.7749 35.6047 98.5549 35.6047C98.1575 35.6047 97.8113 35.7027 97.5164 35.8986C97.2215 36.0921 96.9928 36.3748 96.8303 36.7468C96.6678 37.1163 96.5866 37.5652 96.5866 38.0935C96.5866 38.6366 96.6678 39.0929 96.8303 39.4625C96.9953 39.832 97.2252 40.111 97.5201 40.2995C97.8151 40.488 98.1563 40.5822 98.5437 40.5822C98.7611 40.5822 98.9624 40.5537 99.1473 40.4966C99.3348 40.4396 99.501 40.3565 99.646 40.2474C99.7909 40.1358 99.9109 40.0006 100.006 39.8419C100.103 39.6832 100.171 39.5021 100.208 39.2988L101.851 39.3062C101.808 39.6559 101.702 39.9932 101.532 40.3181C101.364 40.6405 101.138 40.9294 100.853 41.1848C100.571 41.4378 100.233 41.6387 99.8409 41.7875C99.451 41.9338 99.0098 42.007 98.5174 42.007C97.8326 42.007 97.2202 41.8532 96.6803 41.5457C96.1429 41.2382 95.718 40.793 95.4056 40.2102C95.0956 39.6274 94.9407 38.9218 94.9407 38.0935C94.9407 37.2627 95.0981 36.5558 95.4131 35.973C95.728 35.3902 96.1554 34.9463 96.6953 34.6413C97.2352 34.3337 97.8426 34.18 98.5174 34.18C98.9624 34.18 99.3748 34.242 99.7547 34.366C100.137 34.49 100.476 34.671 100.771 34.9091C101.066 35.1447 101.306 35.4336 101.491 35.7759C101.678 36.1181 101.798 36.51 101.851 36.9514Z" fill="#088395"/>
<path d="M109.79 36.9514H108.147C108.117 36.7406 108.056 36.5534 107.964 36.3897C107.871 36.2235 107.752 36.0822 107.607 35.9656C107.463 35.849 107.295 35.7598 107.105 35.6977C106.918 35.6357 106.714 35.6047 106.494 35.6047C106.097 35.6047 105.75 35.7027 105.455 35.8986C105.16 36.0921 104.932 36.3748 104.769 36.7468C104.607 37.1163 104.526 37.5652 104.526 38.0935C104.526 38.6366 104.607 39.0929 104.769 39.4625C104.934 39.832 105.164 40.111 105.459 40.2995C105.754 40.488 106.095 40.5822 106.483 40.5822C106.7 40.5822 106.901 40.5537 107.086 40.4966C107.274 40.4396 107.44 40.3565 107.585 40.2474C107.73 40.1358 107.85 40.0006 107.945 39.8419C108.042 39.6832 108.11 39.5021 108.147 39.2988L109.79 39.3062C109.747 39.6559 109.641 39.9932 109.471 40.3181C109.303 40.6405 109.077 40.9294 108.792 41.1848C108.51 41.4378 108.172 41.6387 107.78 41.7875C107.39 41.9338 106.949 42.007 106.456 42.007C105.772 42.007 105.159 41.8532 104.619 41.5457C104.082 41.2382 103.657 40.793 103.345 40.2102C103.035 39.6274 102.88 38.9218 102.88 38.0935C102.88 37.2627 103.037 36.5558 103.352 35.973C103.667 35.3902 104.094 34.9463 104.634 34.6413C105.174 34.3337 105.782 34.18 106.456 34.18C106.901 34.18 107.314 34.242 107.694 34.366C108.076 34.49 108.415 34.671 108.71 34.9091C109.005 35.1447 109.245 35.4336 109.43 35.7759C109.617 36.1181 109.737 36.51 109.79 36.9514Z" fill="#088395"/>
<path d="M110.661 35.6122V34.2841H116.967V35.6122H114.617V41.9028H113.012V35.6122H110.661Z" fill="#088395"/>
<path d="M119.393 34.2841L121.249 40.0725H121.32L123.18 34.2841H124.98L122.333 41.9028H120.241L117.59 34.2841H119.393Z" fill="#088395"/>
<path d="M60.9413 67.5607H55.8232L63.6217 45.1463H69.7767L77.5641 67.5607H72.446L66.7874 50.2683H66.6109L60.9413 67.5607ZM60.6215 58.7504H72.7107V62.4496H60.6215V58.7504Z" fill="#032B31"/>
<path d="M97.3144 45.1463V67.5607H93.189L83.361 53.4532H83.1955V67.5607H78.4194V45.1463H82.6109L92.3618 59.2429H92.5603V45.1463H97.3144Z" fill="#032B31"/>
<path d="M107.405 67.5607H99.3968V45.1463H107.471C109.743 45.1463 111.699 45.595 113.339 46.4925C114.979 47.3826 116.24 48.6631 117.123 50.334C118.012 52.0049 118.457 54.0041 118.457 56.3316C118.457 58.6665 118.012 60.673 117.123 62.3511C116.24 64.0293 114.972 65.3171 113.317 66.2146C111.67 67.112 109.699 67.5607 107.405 67.5607ZM104.173 63.5003H107.206C108.618 63.5003 109.806 63.2522 110.769 62.7561C111.74 62.2526 112.468 61.4756 112.953 60.4249C113.446 59.3669 113.692 58.0025 113.692 56.3316C113.692 54.6754 113.446 53.3219 112.953 52.2712C112.468 51.2205 111.743 50.4471 110.78 49.951C109.817 49.4548 108.629 49.2067 107.217 49.2067H104.173V63.5003Z" fill="#032B31"/>
<path d="M124.908 45.1463V67.5607H120.132V45.1463H124.908Z" fill="#032B31"/>
<defs>
<linearGradient id="paint0_linear_15_84" x1="45.5592" y1="0" x2="45.5592" y2="67.5607" gradientUnits="userSpaceOnUse">
<stop stop-color="#088395"/>
<stop offset="1" stop-color="#088192"/>
</linearGradient>
<linearGradient id="paint1_linear_15_84" x1="33.4332" y1="20.7996" x2="33.4332" y2="67.5607" gradientUnits="userSpaceOnUse">
<stop stop-color="#088395"/>
<stop offset="1" stop-color="#03292F"/>
</linearGradient>
</defs>
</svg>
