<svg width="135" height="74" viewBox="0 0 135 74" fill="none" xmlns="http://www.w3.org/2000/svg">
<mask id="path-1-outside-1_122_92" maskUnits="userSpaceOnUse" x="0" y="0" width="135" height="74" fill="black">
<rect fill="white" width="135" height="74"/>
<path d="M90.1833 14.9627L87.2379 20.133L90.9639 24.8712L96.1185 15.8418L90.1833 14.9627ZM74.0274 23.858V19.8201C72.7314 19.239 71.8183 17.9427 71.8183 16.408C71.8183 15.5587 72.1129 14.769 72.5989 14.173L69.6976 12.4595C68.2101 11.5804 67.6946 9.65828 68.5636 8.15338L70.5959 4.57738C71.0103 3.85474 71.6902 3.32708 72.4874 3.10939C73.2847 2.89169 74.1347 3.00161 74.8521 3.41517L86.8255 10.448C88.2246 11.2377 88.7106 13.0555 87.9006 14.4859L85.6915 18.3599C84.8815 19.7754 83.07 20.2671 81.6709 19.4476L78.9022 17.8384C78.534 18.7175 77.8418 19.4327 76.9729 19.8201V23.858C76.9729 25.497 75.6474 26.838 74.0274 26.838H66.6637V23.858H74.0274Z"/>
<path d="M56.1791 70.5607L71.8664 23.7996H60.161L49.2911 54.0145H48.907L42.1014 27.9274H30.4935L23.5781 53.8175H23.2214L16.8 35.9498H5L16.4433 70.5607H28.8195L36.0642 45.8059H36.5856L43.8302 70.5607H56.1791Z"/>
<path d="M106.851 39.9514H105.208C105.178 39.7406 105.117 39.5534 105.025 39.3897C104.932 39.2235 104.813 39.0822 104.669 38.9656C104.524 38.849 104.356 38.7598 104.166 38.6978C103.979 38.6358 103.775 38.6048 103.555 38.6048C103.158 38.6048 102.811 38.7027 102.516 38.8986C102.222 39.0921 101.993 39.3748 101.83 39.7468C101.668 40.1163 101.587 40.5652 101.587 41.0935C101.587 41.6366 101.668 42.0929 101.83 42.4625C101.995 42.832 102.225 43.111 102.52 43.2995C102.815 43.488 103.156 43.5822 103.544 43.5822C103.761 43.5822 103.962 43.5537 104.147 43.4966C104.335 43.4396 104.501 43.3565 104.646 43.2474C104.791 43.1358 104.911 43.0006 105.006 42.8419C105.103 42.6832 105.171 42.5022 105.208 42.2988L106.851 42.3062C106.808 42.6559 106.702 42.9932 106.532 43.3181C106.364 43.6405 106.138 43.9294 105.853 44.1849C105.571 44.4378 105.233 44.6387 104.841 44.7875C104.451 44.9338 104.01 45.007 103.518 45.007C102.833 45.007 102.22 44.8532 101.68 44.5457C101.143 44.2382 100.718 43.793 100.406 43.2102C100.096 42.6274 99.9407 41.9218 99.9407 41.0935C99.9407 40.2627 100.098 39.5559 100.413 38.973C100.728 38.3902 101.155 37.9463 101.695 37.6413C102.235 37.3337 102.843 37.18 103.518 37.18C103.962 37.18 104.375 37.242 104.755 37.366C105.137 37.49 105.476 37.671 105.771 37.9091C106.066 38.1447 106.306 38.4336 106.491 38.7759C106.678 39.1181 106.798 39.51 106.851 39.9514Z"/>
<path d="M114.79 39.9514H113.147C113.117 39.7406 113.056 39.5534 112.964 39.3897C112.871 39.2235 112.753 39.0822 112.608 38.9656C112.463 38.849 112.295 38.7598 112.105 38.6978C111.918 38.6358 111.714 38.6048 111.494 38.6048C111.097 38.6048 110.75 38.7027 110.455 38.8986C110.161 39.0921 109.932 39.3748 109.769 39.7468C109.607 40.1163 109.526 40.5652 109.526 41.0935C109.526 41.6366 109.607 42.0929 109.769 42.4625C109.934 42.832 110.164 43.111 110.459 43.2995C110.754 43.488 111.095 43.5822 111.483 43.5822C111.7 43.5822 111.901 43.5537 112.086 43.4966C112.274 43.4396 112.44 43.3565 112.585 43.2474C112.73 43.1358 112.85 43.0006 112.945 42.8419C113.042 42.6832 113.11 42.5022 113.147 42.2988L114.79 42.3062C114.747 42.6559 114.641 42.9932 114.471 43.3181C114.303 43.6405 114.077 43.9294 113.792 44.1849C113.51 44.4378 113.172 44.6387 112.78 44.7875C112.39 44.9338 111.949 45.007 111.457 45.007C110.772 45.007 110.159 44.8532 109.619 44.5457C109.082 44.2382 108.657 43.793 108.345 43.2102C108.035 42.6274 107.88 41.9218 107.88 41.0935C107.88 40.2627 108.037 39.5559 108.352 38.973C108.667 38.3902 109.094 37.9463 109.634 37.6413C110.174 37.3337 110.782 37.18 111.457 37.18C111.901 37.18 112.314 37.242 112.694 37.366C113.076 37.49 113.415 37.671 113.71 37.9091C114.005 38.1447 114.245 38.4336 114.43 38.7759C114.617 39.1181 114.737 39.51 114.79 39.9514Z"/>
<path d="M115.661 38.6122V37.2841H121.968V38.6122H119.617V44.9028H118.012V38.6122H115.661Z"/>
<path d="M124.393 37.2841L126.249 43.0726H126.32L128.18 37.2841H129.98L127.333 44.9028H125.241L122.59 37.2841H124.393Z"/>
<path d="M65.9413 70.5607H60.8232L68.6217 48.1463H74.7766L82.5641 70.5607H77.446L71.7874 53.2684H71.6109L65.9413 70.5607Z"/>
<path d="M102.314 48.1463V70.5607H98.189L88.361 56.4532H88.1955V70.5607H83.4194V48.1463H87.6109L97.3617 62.2429H97.5603V48.1463H102.314Z"/>
<path d="M112.405 70.5607H104.397V48.1463H112.471C114.743 48.1463 116.699 48.595 118.339 49.4925C119.979 50.3826 121.24 51.6632 122.123 53.334C123.012 55.0049 123.457 57.0041 123.457 59.3316C123.457 61.6665 123.012 63.673 122.123 65.3511C121.24 67.0293 119.972 68.3171 118.317 69.2146C116.67 70.112 114.699 70.5607 112.405 70.5607ZM109.173 66.5003H112.206C113.618 66.5003 114.806 66.2522 115.769 65.7561C116.74 65.2526 117.468 64.4756 117.953 63.4249C118.446 62.3669 118.692 61.0025 118.692 59.3316C118.692 57.6754 118.446 56.3219 117.953 55.2712C117.468 54.2205 116.743 53.4471 115.78 52.951C114.817 52.4548 113.629 52.2067 112.217 52.2067H109.173V66.5003Z"/>
<path d="M129.908 48.1463V70.5607H125.132V48.1463H129.908Z"/>
</mask>
<path d="M90.1833 14.9627L87.2379 20.133L90.9639 24.8712L96.1185 15.8418L90.1833 14.9627ZM74.0274 23.858V19.8201C72.7314 19.239 71.8183 17.9427 71.8183 16.408C71.8183 15.5587 72.1129 14.769 72.5989 14.173L69.6976 12.4595C68.2101 11.5804 67.6946 9.65828 68.5636 8.15338L70.5959 4.57738C71.0103 3.85474 71.6902 3.32708 72.4874 3.10939C73.2847 2.89169 74.1347 3.00161 74.8521 3.41517L86.8255 10.448C88.2246 11.2377 88.7106 13.0555 87.9006 14.4859L85.6915 18.3599C84.8815 19.7754 83.07 20.2671 81.6709 19.4476L78.9022 17.8384C78.534 18.7175 77.8418 19.4327 76.9729 19.8201V23.858C76.9729 25.497 75.6474 26.838 74.0274 26.838H66.6637V23.858H74.0274Z" fill="url(#paint0_linear_122_92)"/>
<path d="M56.1791 70.5607L71.8664 23.7996H60.161L49.2911 54.0145H48.907L42.1014 27.9274H30.4935L23.5781 53.8175H23.2214L16.8 35.9498H5L16.4433 70.5607H28.8195L36.0642 45.8059H36.5856L43.8302 70.5607H56.1791Z" fill="url(#paint1_linear_122_92)"/>
<path d="M106.851 39.9514H105.208C105.178 39.7406 105.117 39.5534 105.025 39.3897C104.932 39.2235 104.813 39.0822 104.669 38.9656C104.524 38.849 104.356 38.7598 104.166 38.6978C103.979 38.6358 103.775 38.6048 103.555 38.6048C103.158 38.6048 102.811 38.7027 102.516 38.8986C102.222 39.0921 101.993 39.3748 101.83 39.7468C101.668 40.1163 101.587 40.5652 101.587 41.0935C101.587 41.6366 101.668 42.0929 101.83 42.4625C101.995 42.832 102.225 43.111 102.52 43.2995C102.815 43.488 103.156 43.5822 103.544 43.5822C103.761 43.5822 103.962 43.5537 104.147 43.4966C104.335 43.4396 104.501 43.3565 104.646 43.2474C104.791 43.1358 104.911 43.0006 105.006 42.8419C105.103 42.6832 105.171 42.5022 105.208 42.2988L106.851 42.3062C106.808 42.6559 106.702 42.9932 106.532 43.3181C106.364 43.6405 106.138 43.9294 105.853 44.1849C105.571 44.4378 105.233 44.6387 104.841 44.7875C104.451 44.9338 104.01 45.007 103.518 45.007C102.833 45.007 102.22 44.8532 101.68 44.5457C101.143 44.2382 100.718 43.793 100.406 43.2102C100.096 42.6274 99.9407 41.9218 99.9407 41.0935C99.9407 40.2627 100.098 39.5559 100.413 38.973C100.728 38.3902 101.155 37.9463 101.695 37.6413C102.235 37.3337 102.843 37.18 103.518 37.18C103.962 37.18 104.375 37.242 104.755 37.366C105.137 37.49 105.476 37.671 105.771 37.9091C106.066 38.1447 106.306 38.4336 106.491 38.7759C106.678 39.1181 106.798 39.51 106.851 39.9514Z" fill="#088395"/>
<path d="M114.79 39.9514H113.147C113.117 39.7406 113.056 39.5534 112.964 39.3897C112.871 39.2235 112.753 39.0822 112.608 38.9656C112.463 38.849 112.295 38.7598 112.105 38.6978C111.918 38.6358 111.714 38.6048 111.494 38.6048C111.097 38.6048 110.75 38.7027 110.455 38.8986C110.161 39.0921 109.932 39.3748 109.769 39.7468C109.607 40.1163 109.526 40.5652 109.526 41.0935C109.526 41.6366 109.607 42.0929 109.769 42.4625C109.934 42.832 110.164 43.111 110.459 43.2995C110.754 43.488 111.095 43.5822 111.483 43.5822C111.7 43.5822 111.901 43.5537 112.086 43.4966C112.274 43.4396 112.44 43.3565 112.585 43.2474C112.73 43.1358 112.85 43.0006 112.945 42.8419C113.042 42.6832 113.11 42.5022 113.147 42.2988L114.79 42.3062C114.747 42.6559 114.641 42.9932 114.471 43.3181C114.303 43.6405 114.077 43.9294 113.792 44.1849C113.51 44.4378 113.172 44.6387 112.78 44.7875C112.39 44.9338 111.949 45.007 111.457 45.007C110.772 45.007 110.159 44.8532 109.619 44.5457C109.082 44.2382 108.657 43.793 108.345 43.2102C108.035 42.6274 107.88 41.9218 107.88 41.0935C107.88 40.2627 108.037 39.5559 108.352 38.973C108.667 38.3902 109.094 37.9463 109.634 37.6413C110.174 37.3337 110.782 37.18 111.457 37.18C111.901 37.18 112.314 37.242 112.694 37.366C113.076 37.49 113.415 37.671 113.71 37.9091C114.005 38.1447 114.245 38.4336 114.43 38.7759C114.617 39.1181 114.737 39.51 114.79 39.9514Z" fill="#088395"/>
<path d="M115.661 38.6122V37.2841H121.968V38.6122H119.617V44.9028H118.012V38.6122H115.661Z" fill="#088395"/>
<path d="M124.393 37.2841L126.249 43.0726H126.32L128.18 37.2841H129.98L127.333 44.9028H125.241L122.59 37.2841H124.393Z" fill="#088395"/>
<path d="M65.9413 70.5607H60.8232L68.6217 48.1463H74.7766L82.5641 70.5607H77.446L71.7874 53.2684H71.6109L65.9413 70.5607Z" fill="#032B31"/>
<path d="M102.314 48.1463V70.5607H98.189L88.361 56.4532H88.1955V70.5607H83.4194V48.1463H87.6109L97.3617 62.2429H97.5603V48.1463H102.314Z" fill="#032B31"/>
<path d="M112.405 70.5607H104.397V48.1463H112.471C114.743 48.1463 116.699 48.595 118.339 49.4925C119.979 50.3826 121.24 51.6632 122.123 53.334C123.012 55.0049 123.457 57.0041 123.457 59.3316C123.457 61.6665 123.012 63.673 122.123 65.3511C121.24 67.0293 119.972 68.3171 118.317 69.2146C116.67 70.112 114.699 70.5607 112.405 70.5607ZM109.173 66.5003H112.206C113.618 66.5003 114.806 66.2522 115.769 65.7561C116.74 65.2526 117.468 64.4756 117.953 63.4249C118.446 62.3669 118.692 61.0025 118.692 59.3316C118.692 57.6754 118.446 56.3219 117.953 55.2712C117.468 54.2205 116.743 53.4471 115.78 52.951C114.817 52.4548 113.629 52.2067 112.217 52.2067H109.173V66.5003Z" fill="#032B31"/>
<path d="M129.908 48.1463V70.5607H125.132V48.1463H129.908Z" fill="#032B31"/>
<path d="M90.1833 14.9627L87.2379 20.133L90.9639 24.8712L96.1185 15.8418L90.1833 14.9627ZM74.0274 23.858V19.8201C72.7314 19.239 71.8183 17.9427 71.8183 16.408C71.8183 15.5587 72.1129 14.769 72.5989 14.173L69.6976 12.4595C68.2101 11.5804 67.6946 9.65828 68.5636 8.15338L70.5959 4.57738C71.0103 3.85474 71.6902 3.32708 72.4874 3.10939C73.2847 2.89169 74.1347 3.00161 74.8521 3.41517L86.8255 10.448C88.2246 11.2377 88.7106 13.0555 87.9006 14.4859L85.6915 18.3599C84.8815 19.7754 83.07 20.2671 81.6709 19.4476L78.9022 17.8384C78.534 18.7175 77.8418 19.4327 76.9729 19.8201V23.858C76.9729 25.497 75.6474 26.838 74.0274 26.838H66.6637V23.858H74.0274Z" stroke="white" stroke-width="6" mask="url(#path-1-outside-1_122_92)"/>
<path d="M56.1791 70.5607L71.8664 23.7996H60.161L49.2911 54.0145H48.907L42.1014 27.9274H30.4935L23.5781 53.8175H23.2214L16.8 35.9498H5L16.4433 70.5607H28.8195L36.0642 45.8059H36.5856L43.8302 70.5607H56.1791Z" stroke="white" stroke-width="6" mask="url(#path-1-outside-1_122_92)"/>
<path d="M106.851 39.9514H105.208C105.178 39.7406 105.117 39.5534 105.025 39.3897C104.932 39.2235 104.813 39.0822 104.669 38.9656C104.524 38.849 104.356 38.7598 104.166 38.6978C103.979 38.6358 103.775 38.6048 103.555 38.6048C103.158 38.6048 102.811 38.7027 102.516 38.8986C102.222 39.0921 101.993 39.3748 101.83 39.7468C101.668 40.1163 101.587 40.5652 101.587 41.0935C101.587 41.6366 101.668 42.0929 101.83 42.4625C101.995 42.832 102.225 43.111 102.52 43.2995C102.815 43.488 103.156 43.5822 103.544 43.5822C103.761 43.5822 103.962 43.5537 104.147 43.4966C104.335 43.4396 104.501 43.3565 104.646 43.2474C104.791 43.1358 104.911 43.0006 105.006 42.8419C105.103 42.6832 105.171 42.5022 105.208 42.2988L106.851 42.3062C106.808 42.6559 106.702 42.9932 106.532 43.3181C106.364 43.6405 106.138 43.9294 105.853 44.1849C105.571 44.4378 105.233 44.6387 104.841 44.7875C104.451 44.9338 104.01 45.007 103.518 45.007C102.833 45.007 102.22 44.8532 101.68 44.5457C101.143 44.2382 100.718 43.793 100.406 43.2102C100.096 42.6274 99.9407 41.9218 99.9407 41.0935C99.9407 40.2627 100.098 39.5559 100.413 38.973C100.728 38.3902 101.155 37.9463 101.695 37.6413C102.235 37.3337 102.843 37.18 103.518 37.18C103.962 37.18 104.375 37.242 104.755 37.366C105.137 37.49 105.476 37.671 105.771 37.9091C106.066 38.1447 106.306 38.4336 106.491 38.7759C106.678 39.1181 106.798 39.51 106.851 39.9514Z" stroke="white" stroke-width="6" mask="url(#path-1-outside-1_122_92)"/>
<path d="M114.79 39.9514H113.147C113.117 39.7406 113.056 39.5534 112.964 39.3897C112.871 39.2235 112.753 39.0822 112.608 38.9656C112.463 38.849 112.295 38.7598 112.105 38.6978C111.918 38.6358 111.714 38.6048 111.494 38.6048C111.097 38.6048 110.75 38.7027 110.455 38.8986C110.161 39.0921 109.932 39.3748 109.769 39.7468C109.607 40.1163 109.526 40.5652 109.526 41.0935C109.526 41.6366 109.607 42.0929 109.769 42.4625C109.934 42.832 110.164 43.111 110.459 43.2995C110.754 43.488 111.095 43.5822 111.483 43.5822C111.7 43.5822 111.901 43.5537 112.086 43.4966C112.274 43.4396 112.44 43.3565 112.585 43.2474C112.73 43.1358 112.85 43.0006 112.945 42.8419C113.042 42.6832 113.11 42.5022 113.147 42.2988L114.79 42.3062C114.747 42.6559 114.641 42.9932 114.471 43.3181C114.303 43.6405 114.077 43.9294 113.792 44.1849C113.51 44.4378 113.172 44.6387 112.78 44.7875C112.39 44.9338 111.949 45.007 111.457 45.007C110.772 45.007 110.159 44.8532 109.619 44.5457C109.082 44.2382 108.657 43.793 108.345 43.2102C108.035 42.6274 107.88 41.9218 107.88 41.0935C107.88 40.2627 108.037 39.5559 108.352 38.973C108.667 38.3902 109.094 37.9463 109.634 37.6413C110.174 37.3337 110.782 37.18 111.457 37.18C111.901 37.18 112.314 37.242 112.694 37.366C113.076 37.49 113.415 37.671 113.71 37.9091C114.005 38.1447 114.245 38.4336 114.43 38.7759C114.617 39.1181 114.737 39.51 114.79 39.9514Z" stroke="white" stroke-width="6" mask="url(#path-1-outside-1_122_92)"/>
<path d="M115.661 38.6122V37.2841H121.968V38.6122H119.617V44.9028H118.012V38.6122H115.661Z" stroke="white" stroke-width="6" mask="url(#path-1-outside-1_122_92)"/>
<path d="M124.393 37.2841L126.249 43.0726H126.32L128.18 37.2841H129.98L127.333 44.9028H125.241L122.59 37.2841H124.393Z" stroke="white" stroke-width="6" mask="url(#path-1-outside-1_122_92)"/>
<path d="M65.9413 70.5607H60.8232L68.6217 48.1463H74.7766L82.5641 70.5607H77.446L71.7874 53.2684H71.6109L65.9413 70.5607Z" stroke="white" stroke-width="6" mask="url(#path-1-outside-1_122_92)"/>
<path d="M102.314 48.1463V70.5607H98.189L88.361 56.4532H88.1955V70.5607H83.4194V48.1463H87.6109L97.3617 62.2429H97.5603V48.1463H102.314Z" stroke="white" stroke-width="6" mask="url(#path-1-outside-1_122_92)"/>
<path d="M112.405 70.5607H104.397V48.1463H112.471C114.743 48.1463 116.699 48.595 118.339 49.4925C119.979 50.3826 121.24 51.6632 122.123 53.334C123.012 55.0049 123.457 57.0041 123.457 59.3316C123.457 61.6665 123.012 63.673 122.123 65.3511C121.24 67.0293 119.972 68.3171 118.317 69.2146C116.67 70.112 114.699 70.5607 112.405 70.5607ZM109.173 66.5003H112.206C113.618 66.5003 114.806 66.2522 115.769 65.7561C116.74 65.2526 117.468 64.4756 117.953 63.4249C118.446 62.3669 118.692 61.0025 118.692 59.3316C118.692 57.6754 118.446 56.3219 117.953 55.2712C117.468 54.2205 116.743 53.4471 115.78 52.951C114.817 52.4548 113.629 52.2067 112.217 52.2067H109.173V66.5003Z" stroke="white" stroke-width="6" mask="url(#path-1-outside-1_122_92)"/>
<path d="M129.908 48.1463V70.5607H125.132V48.1463H129.908Z" stroke="white" stroke-width="6" mask="url(#path-1-outside-1_122_92)"/>
<defs>
<linearGradient id="paint0_linear_122_92" x1="67.4898" y1="3" x2="67.4898" y2="70.5607" gradientUnits="userSpaceOnUse">
<stop stop-color="#088395"/>
<stop offset="1" stop-color="#088192"/>
</linearGradient>
<linearGradient id="paint1_linear_122_92" x1="50.8575" y1="23.7996" x2="50.8575" y2="70.5607" gradientUnits="userSpaceOnUse">
<stop stop-color="#088395"/>
<stop offset="1" stop-color="#03292F"/>
</linearGradient>
</defs>
</svg>
