<svg width="720" height="214" viewBox="0 0 720 214" fill="none" xmlns="http://www.w3.org/2000/svg">
<path d="M602.242 30.168H592.754C592.581 28.9405 592.227 27.8501 591.692 26.897C591.158 25.9294 590.472 25.1063 589.635 24.4276C588.797 23.7488 587.829 23.2289 586.732 22.8679C585.649 22.5069 584.472 22.3264 583.201 22.3264C580.905 22.3264 578.905 22.8968 577.201 24.0376C575.497 25.1641 574.175 26.8104 573.237 28.9766C572.298 31.1283 571.829 33.7422 571.829 36.8182C571.829 39.9808 572.298 42.638 573.237 44.7898C574.19 46.9415 575.518 48.5662 577.222 49.6637C578.926 50.7612 580.898 51.31 583.136 51.31C584.392 51.31 585.555 51.1439 586.624 50.8118C587.707 50.4796 588.667 49.9959 589.505 49.3604C590.342 48.7106 591.035 47.9235 591.584 46.9993C592.147 46.075 592.537 45.0208 592.754 43.8366L602.242 43.88C601.996 45.9162 601.383 47.8802 600.401 49.772C599.433 51.6494 598.126 53.3318 596.48 54.8192C594.848 56.2923 592.898 57.462 590.631 58.3285C588.378 59.1805 585.829 59.6065 582.984 59.6065C579.027 59.6065 575.489 58.7112 572.37 56.9205C569.265 55.1297 566.81 52.5375 565.005 49.1438C563.214 45.7501 562.319 41.6416 562.319 36.8182C562.319 31.9803 563.229 27.8646 565.048 24.4709C566.868 21.0772 569.337 18.4922 572.457 16.7159C575.576 14.9252 579.085 14.0298 582.984 14.0298C585.555 14.0298 587.938 14.3909 590.133 15.1129C592.342 15.835 594.299 16.8892 596.003 18.2756C597.707 19.6475 599.094 21.3299 600.162 23.3228C601.245 25.3157 601.939 27.5974 602.242 30.168ZM642.011 30.168H632.523C632.35 28.9405 631.996 27.8501 631.462 26.897C630.927 25.9294 630.241 25.1063 629.404 24.4276C628.566 23.7488 627.599 23.2289 626.501 22.8679C625.418 22.5069 624.241 22.3264 622.97 22.3264C620.674 22.3264 618.674 22.8968 616.97 24.0376C615.266 25.1641 613.944 26.8104 613.006 28.9766C612.067 31.1283 611.598 33.7422 611.598 36.8182C611.598 39.9808 612.067 42.638 613.006 44.7898C613.959 46.9415 615.287 48.5662 616.991 49.6637C618.696 50.7612 620.667 51.31 622.905 51.31C624.162 51.31 625.324 51.1439 626.393 50.8118C627.476 50.4796 628.436 49.9959 629.274 49.3604C630.111 48.7106 630.805 47.9235 631.353 46.9993C631.917 46.075 632.306 45.0208 632.523 43.8366L642.011 43.88C641.765 45.9162 641.152 47.8802 640.17 49.772C639.202 51.6494 637.895 53.3318 636.249 54.8192C634.617 56.2923 632.667 57.462 630.4 58.3285C628.147 59.1805 625.598 59.6065 622.754 59.6065C618.797 59.6065 615.259 58.7112 612.139 56.9205C609.034 55.1297 606.579 52.5375 604.774 49.1438C602.983 45.7501 602.088 41.6416 602.088 36.8182C602.088 31.9803 602.998 27.8646 604.817 24.4709C606.637 21.0772 609.107 18.4922 612.226 16.7159C615.345 14.9252 618.854 14.0298 622.754 14.0298C625.324 14.0298 627.707 14.3909 629.902 15.1129C632.111 15.835 634.068 16.8892 635.772 18.2756C637.476 19.6475 638.863 21.3299 639.931 23.3228C641.015 25.3157 641.708 27.5974 642.011 30.168ZM640.947 22.3697V14.6364H677.383V22.3697H663.801V59H654.529V22.3697H640.947ZM685.298 14.6364L696.021 48.3423H696.432L707.177 14.6364H717.574L702.281 59H690.194L674.879 14.6364H685.298Z" fill="#088395"/>
<path d="M0 173V37.7273H53.3693C63.6293 37.7273 72.37 39.6868 79.5916 43.6058C86.8132 47.4808 92.3175 52.875 96.1044 59.7884C99.9354 66.6577 101.851 74.5838 101.851 83.5668C101.851 92.5497 99.9134 100.476 96.0384 107.345C92.1634 114.215 86.549 119.565 79.1953 123.396C71.8857 127.227 63.0348 129.142 52.6428 129.142H18.6264V106.222H48.0192C53.5234 106.222 58.059 105.276 61.6257 103.382C65.2365 101.445 67.9226 98.7806 69.684 95.3899C71.4893 91.9553 72.392 88.0142 72.392 83.5668C72.392 79.0753 71.4893 75.1563 69.684 71.8097C67.9226 68.4191 65.2365 65.799 61.6257 63.9496C58.0149 62.0561 53.4354 61.1094 47.8871 61.1094H28.6001V173H0Z" fill="url(#paint0_linear_148_150)"/>
<path d="M108.739 173V71.5455H136.018V89.2472H137.075C138.925 82.9503 142.029 78.1946 146.388 74.9801C150.748 71.7216 155.768 70.0924 161.448 70.0924C162.857 70.0924 164.376 70.1804 166.006 70.3566C167.635 70.5327 169.066 70.7749 170.299 71.0831V96.0504C168.978 95.6541 167.151 95.3019 164.817 94.9936C162.483 94.6854 160.347 94.5313 158.41 94.5313C154.271 94.5313 150.572 95.434 147.313 97.2394C144.099 99.0007 141.545 101.467 139.651 104.637C137.802 107.808 136.877 111.462 136.877 115.602V173H108.739Z" fill="url(#paint1_linear_148_150)"/>
<path d="M173.687 173V71.5455H201.825V173H173.687Z" fill="url(#paint2_linear_148_150)"/>
<path d="M242.135 174.916C235.662 174.916 229.893 173.793 224.829 171.547C219.766 169.257 215.758 165.889 212.808 161.441C209.902 156.95 208.449 151.357 208.449 144.664C208.449 139.028 209.484 134.294 211.553 130.463C213.623 126.632 216.441 123.55 220.008 121.216C223.575 118.882 227.626 117.121 232.161 115.932C236.741 114.743 241.54 113.906 246.56 113.422C252.461 112.805 257.217 112.233 260.827 111.705C264.438 111.132 267.058 110.295 268.687 109.195C270.317 108.094 271.131 106.465 271.131 104.307V103.911C271.131 99.7273 269.81 96.4908 267.168 94.201C264.57 91.9112 260.871 90.7664 256.072 90.7664C251.008 90.7664 246.979 91.8892 243.984 94.135C240.99 96.3367 239.008 99.1108 238.04 102.457L212.016 100.344C213.337 94.179 215.935 88.8509 219.81 84.3594C223.685 79.8239 228.682 76.3452 234.803 73.9233C240.968 71.4574 248.101 70.2245 256.204 70.2245C261.84 70.2245 267.234 70.885 272.386 72.206C277.582 73.527 282.184 75.5746 286.191 78.3487C290.242 81.1229 293.435 84.6897 295.768 89.049C298.102 93.3644 299.269 98.5384 299.269 104.571V173H272.584V158.931H271.792C270.163 162.102 267.983 164.898 265.253 167.32C262.523 169.697 259.242 171.569 255.411 172.934C251.58 174.255 247.155 174.916 242.135 174.916ZM250.193 155.496C254.332 155.496 257.987 154.682 261.158 153.053C264.328 151.379 266.816 149.134 268.621 146.315C270.427 143.497 271.329 140.305 271.329 136.738V125.972C270.449 126.544 269.238 127.072 267.697 127.557C266.2 127.997 264.504 128.416 262.611 128.812C260.717 129.164 258.824 129.494 256.93 129.803C255.037 130.067 253.32 130.309 251.778 130.529C248.476 131.014 245.592 131.784 243.126 132.841C240.66 133.898 238.744 135.329 237.379 137.134C236.014 138.896 235.332 141.097 235.332 143.739C235.332 147.57 236.719 150.499 239.493 152.524C242.311 154.506 245.878 155.496 250.193 155.496Z" fill="url(#paint3_linear_148_150)"/>
<path d="M338.077 114.347V173H309.939V71.5455H336.756V89.4453H337.945C340.19 83.5448 343.955 78.8772 349.239 75.4425C354.523 71.9638 360.93 70.2245 368.46 70.2245C375.506 70.2245 381.649 71.7657 386.889 74.848C392.129 77.9304 396.202 82.3338 399.108 88.0583C402.014 93.7387 403.467 100.52 403.467 108.402V173H375.33V113.422C375.374 107.213 373.788 102.369 370.574 98.8907C367.359 95.3679 362.934 93.6066 357.298 93.6066C353.511 93.6066 350.164 94.4212 347.258 96.0504C344.396 97.6797 342.15 100.058 340.521 103.184C338.935 106.266 338.121 109.987 338.077 114.347Z" fill="url(#paint4_linear_148_150)"/>
<path d="M460.191 213.159C451.076 213.159 443.26 211.904 436.743 209.394C430.27 206.928 425.118 203.56 421.287 199.288C417.456 195.017 414.968 190.217 413.824 184.889L439.848 181.389C440.64 183.414 441.895 185.308 443.613 187.069C445.33 188.83 447.598 190.239 450.416 191.296C453.278 192.397 456.757 192.947 460.852 192.947C466.973 192.947 472.015 191.45 475.978 188.456C479.985 185.506 481.988 180.552 481.988 173.594V155.034H480.799C479.566 157.852 477.717 160.516 475.251 163.026C472.785 165.536 469.615 167.584 465.74 169.169C461.865 170.754 457.241 171.547 451.869 171.547C444.251 171.547 437.316 169.786 431.063 166.263C424.854 162.696 419.9 157.258 416.201 149.948C412.547 142.594 410.719 133.303 410.719 122.075C410.719 110.582 412.591 100.982 416.334 93.2763C420.076 85.5703 425.052 79.8019 431.261 75.9709C437.514 72.1399 444.361 70.2245 451.803 70.2245C457.483 70.2245 462.239 71.1932 466.07 73.1307C469.901 75.0242 472.983 77.402 475.317 80.2642C477.695 83.0824 479.522 85.8566 480.799 88.5867H481.856V71.5455H509.796V173.991C509.796 182.621 507.682 189.843 503.455 195.656C499.228 201.468 493.371 205.827 485.885 208.734C478.444 211.684 469.879 213.159 460.191 213.159ZM460.786 150.411C465.321 150.411 469.152 149.288 472.279 147.042C475.449 144.752 477.871 141.494 479.544 137.266C481.262 132.995 482.12 127.887 482.12 121.942C482.12 115.998 481.284 110.846 479.611 106.487C477.937 102.083 475.515 98.6705 472.345 96.2486C469.174 93.8267 465.321 92.6158 460.786 92.6158C456.162 92.6158 452.265 93.8708 449.095 96.3807C445.924 98.8466 443.525 102.281 441.895 106.685C440.266 111.088 439.451 116.174 439.451 121.942C439.451 127.799 440.266 132.863 441.895 137.134C443.569 141.362 445.968 144.642 449.095 146.976C452.265 149.266 456.162 150.411 460.786 150.411Z" fill="url(#paint5_linear_148_150)"/>
<path d="M549.958 174.916C543.485 174.916 537.716 173.793 532.652 171.547C527.588 169.257 523.581 165.889 520.631 161.441C517.725 156.95 516.271 151.357 516.271 144.664C516.271 139.028 517.306 134.294 519.376 130.463C521.446 126.632 524.264 123.55 527.83 121.216C531.397 118.882 535.448 117.121 539.984 115.932C544.563 114.743 549.363 113.906 554.383 113.422C560.284 112.805 565.039 112.233 568.65 111.705C572.261 111.132 574.881 110.295 576.51 109.195C578.139 108.094 578.954 106.465 578.954 104.307V103.911C578.954 99.7273 577.633 96.4908 574.991 94.201C572.393 91.9112 568.694 90.7664 563.894 90.7664C558.83 90.7664 554.801 91.8892 551.807 94.135C548.813 96.3367 546.831 99.1108 545.862 102.457L519.838 100.344C521.159 94.179 523.757 88.8509 527.632 84.3594C531.507 79.8239 536.505 76.3452 542.626 73.9233C548.791 71.4574 555.924 70.2245 564.026 70.2245C569.663 70.2245 575.057 70.885 580.209 72.206C585.405 73.527 590.007 75.5746 594.014 78.3487C598.065 81.1229 601.257 84.6897 603.591 89.049C605.925 93.3644 607.092 98.5384 607.092 104.571V173H580.407V158.931H579.615C577.985 162.102 575.806 164.898 573.076 167.32C570.345 169.697 567.065 171.569 563.234 172.934C559.403 174.255 554.977 174.916 549.958 174.916ZM558.016 155.496C562.155 155.496 565.81 154.682 568.98 153.053C572.151 151.379 574.639 149.134 576.444 146.315C578.249 143.497 579.152 140.305 579.152 136.738V125.972C578.272 126.544 577.061 127.072 575.519 127.557C574.022 127.997 572.327 128.416 570.433 128.812C568.54 129.164 566.647 129.494 564.753 129.803C562.86 130.067 561.142 130.309 559.601 130.529C556.299 131.014 553.414 131.784 550.948 132.841C548.482 133.898 546.567 135.329 545.202 137.134C543.837 138.896 543.154 141.097 543.154 143.739C543.154 147.57 544.541 150.499 547.316 152.524C550.134 154.506 553.7 155.496 558.016 155.496Z" fill="url(#paint6_linear_148_150)"/>
<path d="M645.9 114.347V173H617.762V71.5455H644.578V89.4453H645.767C648.013 83.5448 651.778 78.8772 657.062 75.4425C662.346 71.9638 668.753 70.2245 676.283 70.2245C683.329 70.2245 689.471 71.7657 694.711 74.848C699.951 77.9304 704.025 82.3338 706.931 88.0583C709.837 93.7387 711.29 100.52 711.29 108.402V173H683.152V113.422C683.196 107.213 681.611 102.369 678.397 98.8907C675.182 95.3679 670.757 93.6066 665.12 93.6066C661.333 93.6066 657.987 94.4212 655.081 96.0504C652.218 97.6797 649.973 100.058 648.343 103.184C646.758 106.266 645.944 109.987 645.9 114.347Z" fill="url(#paint7_linear_148_150)"/>
<path d="M168.243 20.1667C168.243 19.592 168.471 19.0409 168.878 18.6346C169.284 18.2283 169.835 18 170.41 18H205.076C205.651 18 206.202 18.2283 206.608 18.6346C207.015 19.0409 207.243 19.592 207.243 20.1667V24.5C207.243 25.0746 207.015 25.6257 206.608 26.0321C206.202 26.4384 205.651 26.6667 205.076 26.6667H170.41C169.835 26.6667 169.284 26.4384 168.878 26.0321C168.471 25.6257 168.243 25.0746 168.243 24.5V20.1667ZM179.076 41.8333C179.076 44.1319 179.989 46.3363 181.615 47.9616C183.24 49.5869 185.444 50.5 187.743 50.5C190.041 50.5 192.246 49.5869 193.871 47.9616C195.496 46.3363 196.41 44.1319 196.41 41.8333C196.41 39.5348 195.496 37.3304 193.871 35.7051C192.246 34.0798 190.041 33.1667 187.743 33.1667C185.444 33.1667 183.24 34.0798 181.615 35.7051C179.989 37.3304 179.076 39.5348 179.076 41.8333Z" fill="#088294"/>
<path d="M202.91 26.6667V41.8333C202.91 45.8558 201.312 49.7135 198.467 52.5578C195.623 55.4021 191.765 57 187.743 57C183.72 57 179.863 55.4021 177.018 52.5578C174.174 49.7135 172.576 45.8558 172.576 41.8333V26.6667M187.743 41.8333H187.765Z" fill="#088294"/>
<path d="M202.91 26.6667V41.8333C202.91 45.8558 201.312 49.7135 198.467 52.5578C195.623 55.4021 191.765 57 187.743 57C183.72 57 179.863 55.4021 177.018 52.5578C174.174 49.7135 172.576 45.8558 172.576 41.8333V26.6667M187.743 41.8333H187.765M168.243 20.1667C168.243 19.592 168.471 19.0409 168.878 18.6346C169.284 18.2283 169.835 18 170.41 18H205.076C205.651 18 206.202 18.2283 206.608 18.6346C207.015 19.0409 207.243 19.592 207.243 20.1667V24.5C207.243 25.0746 207.015 25.6257 206.608 26.0321C206.202 26.4384 205.651 26.6667 205.076 26.6667H170.41C169.835 26.6667 169.284 26.4384 168.878 26.0321C168.471 25.6257 168.243 25.0746 168.243 24.5V20.1667ZM179.076 41.8333C179.076 44.1319 179.989 46.3363 181.615 47.9616C183.24 49.5869 185.444 50.5 187.743 50.5C190.041 50.5 192.246 49.5869 193.871 47.9616C195.496 46.3363 196.41 44.1319 196.41 41.8333C196.41 39.5348 195.496 37.3304 193.871 35.7051C192.246 34.0798 190.041 33.1667 187.743 33.1667C185.444 33.1667 183.24 34.0798 181.615 35.7051C179.989 37.3304 179.076 39.5348 179.076 41.8333Z" stroke="white" stroke-opacity="0.88" stroke-width="2" stroke-linecap="round" stroke-linejoin="round"/>
<defs>
<linearGradient id="paint0_linear_148_150" x1="355.645" y1="213.159" x2="355.645" y2="37.7273" gradientUnits="userSpaceOnUse">
<stop stop-color="#032B31"/>
<stop offset="1" stop-color="#098597"/>
</linearGradient>
<linearGradient id="paint1_linear_148_150" x1="355.645" y1="213.159" x2="355.645" y2="37.7273" gradientUnits="userSpaceOnUse">
<stop stop-color="#032B31"/>
<stop offset="1" stop-color="#098597"/>
</linearGradient>
<linearGradient id="paint2_linear_148_150" x1="355.645" y1="213.159" x2="355.645" y2="37.7273" gradientUnits="userSpaceOnUse">
<stop stop-color="#032B31"/>
<stop offset="1" stop-color="#098597"/>
</linearGradient>
<linearGradient id="paint3_linear_148_150" x1="355.645" y1="213.159" x2="355.645" y2="37.7273" gradientUnits="userSpaceOnUse">
<stop stop-color="#032B31"/>
<stop offset="1" stop-color="#098597"/>
</linearGradient>
<linearGradient id="paint4_linear_148_150" x1="355.645" y1="213.159" x2="355.645" y2="37.7273" gradientUnits="userSpaceOnUse">
<stop stop-color="#032B31"/>
<stop offset="1" stop-color="#098597"/>
</linearGradient>
<linearGradient id="paint5_linear_148_150" x1="355.645" y1="213.159" x2="355.645" y2="37.7273" gradientUnits="userSpaceOnUse">
<stop stop-color="#032B31"/>
<stop offset="1" stop-color="#098597"/>
</linearGradient>
<linearGradient id="paint6_linear_148_150" x1="355.645" y1="213.159" x2="355.645" y2="37.7273" gradientUnits="userSpaceOnUse">
<stop stop-color="#032B31"/>
<stop offset="1" stop-color="#098597"/>
</linearGradient>
<linearGradient id="paint7_linear_148_150" x1="355.645" y1="213.159" x2="355.645" y2="37.7273" gradientUnits="userSpaceOnUse">
<stop stop-color="#032B31"/>
<stop offset="1" stop-color="#098597"/>
</linearGradient>
</defs>
</svg>
